P1
8 4
00000000
11110000
11111111
11111111